/* XPM */
static char * Char_L_xpm[] = {
"32 32 6 1",
" 	c None",
".	c #3A0911",
"+	c #A11B31",
"@	c #811426",
"#	c #000000",
"$	c #FFFFFF",
"                                ",
"                                ",
"            .......             ",
"           .++++++@.            ",
"          .+....+++@.           ",
"         .+.####.+++@.          ",
"        .+.######.++@.          ",
"        .+.######.++@@.         ",
"        .+.$###$#.+@@@.         ",
"        .+.$###$#.+@.@.         ",
"        .@.######.+@.@.         ",
"        .@.#####.+@@..          ",
"         .@.###.@@@.            ",
"          .@...@@...            ",
"         .@++++++++@.           ",
"         .@+++++++++@.          ",
"         .@+++++++++@.          ",
"         .+++++++++++.          ",
"         .+++++++++++@.         ",
"        .@++++@++++++@.         ",
"        .@@++@.@+++++@.         ",
"        .@@+@@.@@+@+@@@.        ",
"        .@@@@.#.@@+@@@@.        ",
"        .@.@@.##.@@@@.@.        ",
"         .@@.###.@@.@..         ",
"          ...#  ... ..          ",
"            ##   ##             ",
"            #      ##           ",
"            #                   ",
"            #                   ",
"                                ",
"                                "};
