/* XPM */
static char * Char_U1_xpm[] = {
"32 32 6 1",
" 	c #A6865C",
".	c #3A0911",
"+	c #811426",
"@	c #A11B31",
"#	c #000000",
"$	c #FFFFFF",
"                                ",
"                                ",
"                                ",
"          .......               ",
"         .+@@@@@@.              ",
"        .+@@@....@.             ",
"       .+@@@.####.@.            ",
"       .+@@.######.@.           ",
"      .++@@.#$###$.@.           ",
"      .+++@.#$###$.@.           ",
"      .+.+@.######.@.           ",
"      .+.+@.######.+.           ",
"       ..++@.#####.+.           ",
"         .+++.###.+.            ",
"          ..++...+.             ",
"         .+++@@@@@+.            ",
"        .+@@@@@@@@@+.           ",
"        .+@@@@@@@@@+.           ",
"        .@@@@@@@@@@@.           ",
"        .@@@@@@@@@@@.           ",
"        .@@@@@@+@@@@.           ",
"        .@@@@@@+@@@@.           ",
"        .@@@@@+.+@@+.           ",
"       .++@+@++.++@+.           ",
"       .+++@++.#.++++.          ",
"       .+++++.##.++.+.          ",
"       .++.++.###.++.           ",
"        .. ...  #...            ",
"           ##    #              ",
"            #    #              ",
"            #    #              ",
"                                "};
