/* XPM */
static char * Img_Exit_xpm[] = {
"32 32 289 2",
"  	c #A6865C",
". 	c #4F2F2D",
"+ 	c #332A44",
"@ 	c #825D42",
"# 	c #4E323B",
"$ 	c #2F263E",
"% 	c #362C48",
"& 	c #3C304E",
"* 	c #51343D",
"= 	c #3B304D",
"- 	c #2D253C",
"; 	c #382D49",
"> 	c #3C314F",
", 	c #977550",
"' 	c #422D38",
") 	c #403353",
"! 	c #44384A",
"~ 	c #372C48",
"{ 	c #3E3251",
"] 	c #3C304F",
"^ 	c #4B3140",
"/ 	c #5A4B54",
"( 	c #372D49",
"_ 	c #392F4C",
": 	c #663B36",
"< 	c #52343C",
"[ 	c #3A2F4C",
"} 	c #42364E",
"| 	c #312840",
"1 	c #302740",
"2 	c #3F3251",
"3 	c #3E3150",
"4 	c #643A35",
"5 	c #4C313A",
"6 	c #392E4B",
"7 	c #8C7254",
"8 	c #846D52",
"9 	c #352B46",
"0 	c #3F3252",
"a 	c #3F3352",
"b 	c #6C3F37",
"c 	c #4F3340",
"d 	c #3D314F",
"e 	c #403548",
"f 	c #504441",
"g 	c #3D3150",
"h 	c #382E4A",
"i 	c #6F4137",
"j 	c #4E323A",
"k 	c #3E3250",
"l 	c #342A44",
"m 	c #6C3E37",
"n 	c #4A313A",
"o 	c #6B3E36",
"p 	c #51343F",
"q 	c #6D3F37",
"r 	c #47303C",
"s 	c #382D4A",
"t 	c #362C47",
"u 	c #704237",
"v 	c #472F38",
"w 	c #3B304E",
"x 	c #3A2E4B",
"y 	c #3A2F4D",
"z 	c #372D48",
"A 	c #271D28",
"B 	c #5D413A",
"C 	c #422F2B",
"D 	c #262032",
"E 	c #383134",
"F 	c #5D5046",
"G 	c #BEAE8E",
"H 	c #81715D",
"I 	c #5C5348",
"J 	c #231F2F",
"K 	c #392D4A",
"L 	c #312929",
"M 	c #786B5B",
"N 	c #98826B",
"O 	c #CCB895",
"P 	c #9C856C",
"Q 	c #9A8A72",
"R 	c #574D42",
"S 	c #2C243A",
"T 	c #403352",
"U 	c #362B46",
"V 	c #322943",
"W 	c #271E21",
"X 	c #392222",
"Y 	c #57332F",
"Z 	c #633A35",
"` 	c #796051",
" .	c #69493F",
"..	c #5C3630",
"+.	c #482B28",
"@.	c #2E1D1F",
"#.	c #251F30",
"$.	c #392F4B",
"%.	c #302840",
"&.	c #433B36",
"*.	c #615248",
"=.	c #53322C",
"-.	c #5C3830",
";.	c #603934",
">.	c #D1C09B",
",.	c #9A846C",
"'.	c #59362F",
").	c #5D3831",
"!.	c #52322F",
"~.	c #685E51",
"{.	c #27212D",
"].	c #272034",
"^.	c #463D36",
"/.	c #938770",
"(.	c #A69278",
"_.	c #55342D",
":.	c #58352E",
"<.	c #5F3833",
"[.	c #CFBC98",
"}.	c #9B846C",
"|.	c #55332D",
"1.	c #58362F",
"2.	c #644039",
"3.	c #CEBD9A",
"4.	c #6F6455",
"5.	c #211924",
"6.	c #352A45",
"7.	c #362D48",
"8.	c #211B2A",
"9.	c #51443B",
"0.	c #7E6A58",
"a.	c #C7B08E",
"b.	c #A89075",
"c.	c #77604D",
"d.	c #846B55",
"e.	c #725546",
"f.	c #BEA988",
"g.	c #907661",
"h.	c #816954",
"i.	c #6B4D41",
"j.	c #CEB995",
"k.	c #B19C7E",
"l.	c #503F38",
"m.	c #342A29",
"n.	c #2C253B",
"o.	c #332944",
"p.	c #2E2529",
"q.	c #624F42",
"r.	c #846D59",
"s.	c #745548",
"t.	c #8A705B",
"u.	c #7B5C4D",
"v.	c #7D6654",
"w.	c #785C4D",
"x.	c #826855",
"y.	c #735346",
"z.	c #7C6552",
"A.	c #705245",
"B.	c #806754",
"C.	c #705548",
"D.	c #7C6754",
"E.	c #4F3E35",
"F.	c #211C2C",
"G.	c #2E263E",
"H.	c #27191C",
"I.	c #42322D",
"J.	c #5D3A35",
"K.	c #623A36",
"L.	c #503531",
"M.	c #5E433A",
"N.	c #573C35",
"O.	c #5A4138",
"P.	c #583C36",
"Q.	c #5B4138",
"R.	c #5E4239",
"S.	c #583E37",
"T.	c #593D36",
"U.	c #593F37",
"V.	c #563531",
"W.	c #673D37",
"X.	c #49322F",
"Y.	c #322323",
"Z.	c #1B161D",
"`.	c #573330",
" +	c #5A453C",
".+	c #6B473E",
"++	c #8C775E",
"@+	c #A38C6D",
"#+	c #B79F7C",
"$+	c #B19A78",
"%+	c #B89F7C",
"&+	c #B39B79",
"*+	c #B69E7B",
"=+	c #AD9674",
"-+	c #A99270",
";+	c #AF9774",
">+	c #AB9371",
",+	c #A89070",
"'+	c #AC9472",
")+	c #8C785E",
"!+	c #755C4B",
"~+	c #65433B",
"{+	c #503933",
"]+	c #68423A",
"^+	c #947D63",
"/+	c #AF9674",
"(+	c #9F886A",
"_+	c #857055",
":+	c #867156",
"<+	c #846F54",
"[+	c #937D62",
"}+	c #B69D79",
"|+	c #AE9573",
"1+	c #AE9572",
"2+	c #AF9673",
"3+	c #A38B6D",
"4+	c #795F4D",
"5+	c #6E4239",
"6+	c #623934",
"7+	c #AE9674",
"8+	c #B49B77",
"9+	c #A89170",
"0+	c #48362F",
"a+	c #5B3632",
"b+	c #553430",
"c+	c #53322F",
"d+	c #4B2D2B",
"e+	c #947F63",
"f+	c #B29976",
"g+	c #B39A77",
"h+	c #4F3A32",
"i+	c #533C34",
"j+	c #42352D",
"k+	c #836D56",
"l+	c #9B8568",
"m+	c #B09875",
"n+	c #44312B",
"o+	c #613A35",
"p+	c #5A3732",
"q+	c #583531",
"r+	c #4F302D",
"s+	c #9C8668",
"t+	c #9F896A",
"u+	c #56342D",
"v+	c #5C3730",
"w+	c #55342B",
"x+	c #846D56",
"y+	c #AA9271",
"z+	c #A58E6E",
"A+	c #432F2B",
"B+	c #633C33",
"C+	c #54332D",
"D+	c #9E845F",
"E+	c #A8916F",
"F+	c #4D302A",
"G+	c #53342D",
"H+	c #452D24",
"I+	c #876F58",
"J+	c #B19975",
"K+	c #613833",
"L+	c #B39B77",
"M+	c #AD9473",
"N+	c #A99171",
"O+	c #47342D",
"P+	c #603A33",
"Q+	c #52312D",
"R+	c #9E835F",
"S+	c #AA9272",
"T+	c #9B8467",
"U+	c #9C8567",
"V+	c #9F896B",
"W+	c #A78F6F",
"X+	c #AD9573",
"Y+	c #4C3930",
"Z+	c #9D8665",
"`+	c #B39A76",
" @	c #A99170",
".@	c #A48D6D",
"+@	c #A58D6E",
"@@	c #664238",
"#@	c #3F2F2A",
"$@	c #51312D",
"%@	c #4D2F2C",
"&@	c #4B2E2A",
"*@	c #422826",
"=@	c #9F845D",
"-@	c #9D8769",
";@	c #9C8461",
">@	c #5F3B35",
"                              .                                 ",
"                          + @ # $                               ",
"                        % & @ * = -                             ",
"                      ; > = , ' ) !                             ",
"                    ~ ) { ] @ ^ > /                             ",
"                  = ( ) ) _ : < [ }     |                       ",
"              1 2 ) & 3 ) > 4 5 ) 6 7 8 { 9                     ",
"            + 0 ) ) { > a { b c ) d e f 0 0 &                   ",
"          [ ) 3 ) ) ) g g h i j k ) ) { { g ) a l               ",
"        > ) ) [ ) & ) ) ) & m n a g ) 0 g a ) { { +             ",
"        & ) ) d ) > ) ) ) d o p 0 = ) k ) ) [ d & l             ",
"        2 d 3 ) ) = 0 ) ) h q r = ) ) a d ) 0 ] 0 s             ",
"        = { { ) ) ) 2 d 2 t u v w ) = ) = ) a = ) x             ",
"        a { { = ) ) ) y z A B C D 0 h ) [ 0 ) a ) s             ",
"        2 a 0 ( ) & ) + E F G H I J 6 { w ) { 3 ) K             ",
"        g ) { g ) { t L M N O P Q R S 6 ) ) ( a T U             ",
"        g k ) ) a V W X Y Z `  ...+.@.#.h ) g d $.%.            ",
"        ) > ) g - &.*.=.-.;.>.,.'.).!.~.{.] 0 { 0 ~             ",
"        6 ) h ].^./.(._.:.<.[.}.|.1.2.3.4.5.% g ) 6.            ",
"        7.9 8.9.0.a.b.c.d.e.f.g.h.d.i.j.k.l.m.n.z o.            ",
"        - p.q.r.s.t.u.v.r.w.x.y.r.z.A.t.B.C.D.E.F.G.            ",
"        H.I.J.K.L.M.N.O.P.Q.O.N.R.S.T.U.U.V.W.X.Y.Z.            ",
"        `. +.+++@+#+$+%+&+*+=+-+;+>+,+'+'+)+!+~+{+              ",
"        Z ]+^+/+(+_+:+_+<+<+[+}+|+;+1+1+2+>+3+4+5+              ",
"        6+  7+8+9+0+a+b+c+d+e+f+g+@+h+i+j+k+8+l+                ",
"        6+  f+m+@+n+o+p+q+r+s+m+8+t+u+v+w+x+'+y+                ",
"        6+  |+8+z+A+o+p+B+C+D+m+g+E+F+G+H+I+8+J+                ",
"        K+  L+M+N+O+o+p+P+Q+R+M+8+S+T+U+T+V+;+y+                ",
"            W+/+X+Y+o+p+q+r+Z+f+7+`+ @W+.@;+J++@@@              ",
"              R+  #@$@%@&@*@  t+=@t+s+-@;@;@s+  >@              ",
"                                                                ",
"                                                                "};
