/* XPM */
static char * Img_Exit_xpm[] = {
"32 32 311 2",
"  	c None",
". 	c #724338",
"+ 	c #4F2F2D",
"@ 	c #332A44",
"# 	c #6E4037",
"$ 	c #4E323B",
"% 	c #2F263E",
"& 	c #362C48",
"* 	c #3C304E",
"= 	c #51343D",
"- 	c #3B304D",
"; 	c #2D253C",
"> 	c #382D49",
", 	c #3C314F",
"' 	c #704137",
") 	c #422D38",
"! 	c #403353",
"~ 	c #44384A",
"{ 	c #89765B",
"] 	c #907C5F",
"^ 	c #372C48",
"/ 	c #3E3251",
"( 	c #3C304F",
"_ 	c #4B3140",
": 	c #5A4B54",
"< 	c #7E6D55",
"[ 	c #89765C",
"} 	c #372D49",
"| 	c #392F4C",
"1 	c #663B36",
"2 	c #52343C",
"3 	c #3A2F4C",
"4 	c #42364E",
"5 	c #86735D",
"6 	c #7A6855",
"7 	c #312840",
"8 	c #302740",
"9 	c #3F3251",
"0 	c #3E3150",
"a 	c #643A35",
"b 	c #4C313A",
"c 	c #392E4B",
"d 	c #68574B",
"e 	c #66564A",
"f 	c #352B46",
"g 	c #3F3252",
"h 	c #3F3352",
"i 	c #6C3F37",
"j 	c #4F3340",
"k 	c #3D314F",
"l 	c #403548",
"m 	c #504441",
"n 	c #3D3150",
"o 	c #382E4A",
"p 	c #6F4137",
"q 	c #4E323A",
"r 	c #3E3250",
"s 	c #342A44",
"t 	c #6C3E37",
"u 	c #4A313A",
"v 	c #6B3E36",
"w 	c #51343F",
"x 	c #6D3F37",
"y 	c #47303C",
"z 	c #382D4A",
"A 	c #362C47",
"B 	c #704237",
"C 	c #472F38",
"D 	c #3B304E",
"E 	c #3A2E4B",
"F 	c #3A2F4D",
"G 	c #372D48",
"H 	c #271D28",
"I 	c #5D413A",
"J 	c #422F2B",
"K 	c #262032",
"L 	c #383134",
"M 	c #5D5046",
"N 	c #BEAE8E",
"O 	c #81715D",
"P 	c #5C5348",
"Q 	c #231F2F",
"R 	c #392D4A",
"S 	c #312929",
"T 	c #786B5B",
"U 	c #98826B",
"V 	c #CCB895",
"W 	c #9C856C",
"X 	c #9A8A72",
"Y 	c #574D42",
"Z 	c #2C243A",
"` 	c #403352",
" .	c #362B46",
"..	c #322943",
"+.	c #271E21",
"@.	c #392222",
"#.	c #57332F",
"$.	c #633A35",
"%.	c #796051",
"&.	c #69493F",
"*.	c #5C3630",
"=.	c #482B28",
"-.	c #2E1D1F",
";.	c #251F30",
">.	c #392F4B",
",.	c #302840",
"'.	c #433B36",
").	c #615248",
"!.	c #53322C",
"~.	c #5C3830",
"{.	c #603934",
"].	c #D1C09B",
"^.	c #9A846C",
"/.	c #59362F",
"(.	c #5D3831",
"_.	c #52322F",
":.	c #685E51",
"<.	c #27212D",
"[.	c #272034",
"}.	c #463D36",
"|.	c #938770",
"1.	c #A69278",
"2.	c #55342D",
"3.	c #58352E",
"4.	c #5F3833",
"5.	c #CFBC98",
"6.	c #9B846C",
"7.	c #55332D",
"8.	c #58362F",
"9.	c #644039",
"0.	c #CEBD9A",
"a.	c #6F6455",
"b.	c #211924",
"c.	c #352A45",
"d.	c #362D48",
"e.	c #211B2A",
"f.	c #51443B",
"g.	c #7E6A58",
"h.	c #C7B08E",
"i.	c #A89075",
"j.	c #77604D",
"k.	c #846B55",
"l.	c #725546",
"m.	c #BEA988",
"n.	c #907661",
"o.	c #816954",
"p.	c #6B4D41",
"q.	c #CEB995",
"r.	c #B19C7E",
"s.	c #503F38",
"t.	c #342A29",
"u.	c #2C253B",
"v.	c #332944",
"w.	c #2E2529",
"x.	c #624F42",
"y.	c #846D59",
"z.	c #745548",
"A.	c #8A705B",
"B.	c #7B5C4D",
"C.	c #7D6654",
"D.	c #785C4D",
"E.	c #826855",
"F.	c #735346",
"G.	c #7C6552",
"H.	c #705245",
"I.	c #806754",
"J.	c #705548",
"K.	c #7C6754",
"L.	c #4F3E35",
"M.	c #211C2C",
"N.	c #2E263E",
"O.	c #27191C",
"P.	c #42322D",
"Q.	c #5D3A35",
"R.	c #623A36",
"S.	c #503531",
"T.	c #5E433A",
"U.	c #573C35",
"V.	c #5A4138",
"W.	c #583C36",
"X.	c #5B4138",
"Y.	c #5E4239",
"Z.	c #583E37",
"`.	c #593D36",
" +	c #593F37",
".+	c #563531",
"++	c #673D37",
"@+	c #49322F",
"#+	c #322323",
"$+	c #1B161D",
"%+	c #573330",
"&+	c #5A453C",
"*+	c #6B473E",
"=+	c #8C775E",
"-+	c #A38C6D",
";+	c #B79F7C",
">+	c #B19A78",
",+	c #B89F7C",
"'+	c #B39B79",
")+	c #B69E7B",
"!+	c #AD9674",
"~+	c #A99270",
"{+	c #AF9774",
"]+	c #AB9371",
"^+	c #A89070",
"/+	c #AC9472",
"(+	c #8C785E",
"_+	c #755C4B",
":+	c #65433B",
"<+	c #503933",
"[+	c #68423A",
"}+	c #947D63",
"|+	c #AF9674",
"1+	c #9F886A",
"2+	c #857055",
"3+	c #867156",
"4+	c #846F54",
"5+	c #937D62",
"6+	c #B69D79",
"7+	c #AE9573",
"8+	c #AE9572",
"9+	c #AF9673",
"0+	c #A38B6D",
"a+	c #795F4D",
"b+	c #6C3F39",
"c+	c #623934",
"d+	c #826A55",
"e+	c #AE9674",
"f+	c #B49B77",
"g+	c #A89170",
"h+	c #48362F",
"i+	c #5B3632",
"j+	c #553430",
"k+	c #53322F",
"l+	c #4B2D2B",
"m+	c #947F63",
"n+	c #B29976",
"o+	c #B39A77",
"p+	c #4F3A32",
"q+	c #533C34",
"r+	c #42352D",
"s+	c #836D56",
"t+	c #9B8568",
"u+	c #68453C",
"v+	c #927A60",
"w+	c #B09875",
"x+	c #44312B",
"y+	c #613A35",
"z+	c #5A3732",
"A+	c #583531",
"B+	c #4F302D",
"C+	c #9C8668",
"D+	c #9F896A",
"E+	c #56342D",
"F+	c #5C3730",
"G+	c #55342B",
"H+	c #846D56",
"I+	c #AA9271",
"J+	c #6C4B40",
"K+	c #917A60",
"L+	c #A58E6E",
"M+	c #432F2B",
"N+	c #633C33",
"O+	c #54332D",
"P+	c #988365",
"Q+	c #A8916F",
"R+	c #4D302A",
"S+	c #53342D",
"T+	c #452D24",
"U+	c #876F58",
"V+	c #B19975",
"W+	c #6C4C41",
"X+	c #613833",
"Y+	c #8E765E",
"Z+	c #B39B77",
"`+	c #AD9473",
" @	c #A99171",
".@	c #47342D",
"+@	c #603A33",
"@@	c #52312D",
"#@	c #988265",
"$@	c #AA9272",
"%@	c #9B8467",
"&@	c #9C8567",
"*@	c #9F896B",
"=@	c #69483E",
"-@	c #856A56",
";@	c #A78F6F",
">@	c #AD9573",
",@	c #4C3930",
"'@	c #9C8667",
")@	c #B39A76",
"!@	c #A99170",
"~@	c #A48D6D",
"{@	c #A58D6E",
"]@	c #643F38",
"^@	c #745A4A",
"/@	c #907B61",
"(@	c #86725B",
"_@	c #3F2F2A",
":@	c #51312D",
"<@	c #4D2F2C",
"[@	c #4B2E2A",
"}@	c #422826",
"|@	c #806D56",
"1@	c #968164",
"2@	c #9D8769",
"3@	c #998466",
"4@	c #998366",
"5@	c #836E58",
"6@	c #5F3B35",
"                            . +                                 ",
"                          @ # $ %                               ",
"                        & * # = - ;                             ",
"                      > , - ' ) ! ~ { ]                         ",
"                    ^ ! / ( # _ , : < [                         ",
"                  - } ! ! | 1 2 3 4 5 6 7                       ",
"              8 9 ! * 0 ! , a b ! c d e / f                     ",
"            @ g ! ! / , h / i j ! k l m g g *                   ",
"          3 ! 0 ! ! ! n n o p q r ! ! / / n ! h s               ",
"        , ! ! 3 ! * ! ! ! * t u h n ! g n h ! / / @             ",
"        * ! ! k ! , ! ! ! k v w g - ! r ! ! 3 k * s             ",
"        9 k 0 ! ! - g ! ! o x y - ! ! h k ! g ( g z             ",
"        - / / ! ! ! 9 k 9 A B C D ! - ! - ! h - ! E             ",
"        h / / - ! ! ! F G H I J K g o ! 3 g ! h ! z             ",
"        9 h g } ! * ! @ L M N O P Q c / D ! / 0 ! R             ",
"        n ! / n ! / A S T U V W X Y Z c ! ! } h `  .            ",
"        n r ! ! h ..+.@.#.$.%.&.*.=.-.;.o ! n k >.,.            ",
"        ! , ! n ; '.).!.~.{.].^./.(._.:.<.( g / g ^             ",
"        c ! o [.}.|.1.2.3.4.5.6.7.8.9.0.a.b.& n ! c.            ",
"        d.f e.f.g.h.i.j.k.l.m.n.o.k.p.q.r.s.t.u.G v.            ",
"        ; w.x.y.z.A.B.C.y.D.E.F.y.G.H.A.I.J.K.L.M.N.            ",
"        O.P.Q.R.S.T.U.V.W.X.V.U.Y.Z.`. + +.+++@+#+$+            ",
"        %+&+*+=+-+;+>+,+'+)+!+~+{+]+^+/+/+(+_+:+<+              ",
"        $.[+}+|+1+2+3+2+4+4+5+6+7+{+8+8+9+]+0+a+b+              ",
"        c+d+e+f+g+h+i+j+k+l+m+n+o+-+p+q+r+s+f+t+u+              ",
"        c+v+n+w+-+x+y+z+A+B+C+w+f+D+E+F+G+H+/+I+J+              ",
"        c+K+7+f+L+M+y+z+N+O+P+w+o+Q+R+S+T+U+f+V+W+              ",
"        X+Y+Z+`+ @.@y+z++@@@#@`+f+$@%@&@%@*@{+I+=@              ",
"          -@;@|+>@,@y+z+A+B+'@n+e+)@!@;@~@{+V+{@]@              ",
"          ^@/@#@(@_@:@<@[@}@|@D+1@D+C+2@3@4@C+5@6@              ",
"                                                                ",
"                                                                "};
