/* XPM */
static char * Img_C_xpm[] = {
"32 32 14 1",
" 	c #A6865C",
".	c #FFFFFF",
"+	c #A7EDF0",
"@	c #82FFE1",
"#	c #3C1E8C",
"$	c #41D7D7",
"%	c #7962E9",
"&	c #573CDA",
"*	c #E2CBFF",
"=	c #0F379B",
"-	c #1469C3",
";	c #14A0CD",
">	c #0F0F69",
",	c #9784F0",
"                                ",
"                                ",
"                                ",
"                                ",
"                                ",
"                                ",
"          ............          ",
"        ..++++++++++@@.#        ",
"      ...++..+.++++@@@$%&#      ",
"     .@@*.++++++++@@@$.==&#     ",
"    .@.@@*.++++@@@@@$.--==&#    ",
"   .@.@@@@*......***%;---==&#   ",
"  .@.@.@@@@.*****;;;=;---===&>  ",
" ..@@.@@@@.$$@$$$$$;;=;---==#&> ",
" .,.@@@@@@.$@$$$$$;;;=;---==>>> ",
"  .,..@@@.$$@$$$$$;;;-=;-->>#>  ",
"  .@,,..@.$$$$$$$;;;-&=;>>###>  ",
"   .@@,,;;$$$$$$;;--&&>>##-#>   ",
"    .@.$,,;..-----;;==##--#>    ",
"     .@.$$%%%%%%%%&&&#--=#>     ",
"      .@.$%$$;;-----#-==#>      ",
"       *$$$.$$;;---&#-=#>       ",
"        *$$.$$;;--&#-=#>        ",
"         *$$.$$;;-&#-#>         ",
"          *$$%$;;-#-#>          ",
"           .$%$$;;##>           ",
"            %;%$;###            ",
"             .%$;##             ",
"              .%%#              ",
"               %#               ",
"                                ",
"                                "};
