/* XPM */
static char * Img_Emp_xpm[] = {
"32 32 206 2",
"  	c #A08662",
". 	c #967E5E",
"+ 	c #927B5D",
"@ 	c #968B5B",
"# 	c #9F8662",
"$ 	c #9F8562",
"% 	c #9E8561",
"& 	c #987F5F",
"* 	c #99835F",
"= 	c #9D8461",
"- 	c #977F5E",
"; 	c #9A915D",
"> 	c #97A35A",
", 	c #9AAC5D",
"' 	c #8C9056",
") 	c #93B850",
"! 	c #8FAD53",
"~ 	c #8A7959",
"{ 	c #97A95B",
"] 	c #91B554",
"^ 	c #818251",
"/ 	c #899E53",
"( 	c #8FA459",
"_ 	c #8EA056",
": 	c #94BF4F",
"< 	c #80934E",
"[ 	c #97B55A",
"} 	c #91A859",
"| 	c #878356",
"1 	c #90B152",
"2 	c #96B858",
"3 	c #928F57",
"4 	c #95AB5B",
"5 	c #A0AC5D",
"6 	c #9B8560",
"7 	c #9B8F5E",
"8 	c #776C4F",
"9 	c #97D243",
"0 	c #9CDB43",
"a 	c #99D345",
"b 	c #9CDA43",
"c 	c #A0DD49",
"d 	c #9AD644",
"e 	c #9DDA48",
"f 	c #9DDC45",
"g 	c #88B644",
"h 	c #96825F",
"i 	c #8DA554",
"j 	c #9BD549",
"k 	c #8E8B58",
"l 	c #9D9362",
"m 	c #76674F",
"n 	c #93CA43",
"o 	c #81A944",
"p 	c #8A7458",
"q 	c #998C5F",
"r 	c #868B52",
"s 	c #9AD04C",
"t 	c #8E7B5A",
"u 	c #988D5C",
"v 	c #9E8461",
"w 	c #8AAB4F",
"x 	c #9EDB49",
"y 	c #828552",
"z 	c #877456",
"A 	c #92CA43",
"B 	c #81A844",
"C 	c #99805F",
"D 	c #957D5E",
"E 	c #8E9256",
"F 	c #9DD34F",
"G 	c #95815D",
"H 	c #91805A",
"I 	c #827C54",
"J 	c #92C647",
"K 	c #85AD49",
"L 	c #917B5C",
"M 	c #97875D",
"N 	c #939B57",
"O 	c #9DDA49",
"P 	c #9AD14C",
"Q 	c #98845E",
"R 	c #958B5A",
"S 	c #8B7759",
"T 	c #8CBF43",
"U 	c #809E4A",
"V 	c #9A8160",
"W 	c #8E9C58",
"X 	c #A0DE49",
"Y 	c #9FD84E",
"Z 	c #8D7D5B",
"` 	c #9A8F5D",
" .	c #859252",
"..	c #97D343",
"+.	c #8FC343",
"@.	c #8E845B",
"#.	c #957F5D",
"$.	c #88B348",
"%.	c #99D643",
"&.	c #96D143",
"*.	c #8C9D52",
"=.	c #9B9261",
"-.	c #8B9356",
";.	c #9EDA49",
">.	c #95CC47",
",.	c #8F7D5B",
"'.	c #95855C",
").	c #807955",
"!.	c #91BF4E",
"~.	c #907A5C",
"{.	c #9A935B",
"].	c #8AA14F",
"^.	c #94CC44",
"/.	c #8F8B58",
"(.	c #927A5C",
"_.	c #95A158",
":.	c #9FDC4B",
"<.	c #98CF49",
"[.	c #988D5D",
"}.	c #97885D",
"|.	c #8D9957",
"1.	c #96CC4B",
"2.	c #8AB647",
"3.	c #958F5D",
"4.	c #917F5A",
"5.	c #97AD5C",
"6.	c #9BD64A",
"7.	c #999560",
"8.	c #9C8361",
"9.	c #888E54",
"0.	c #9FDD49",
"a.	c #867958",
"b.	c #8EA653",
"c.	c #9DDB44",
"d.	c #9FDD48",
"e.	c #92C44A",
"f.	c #999C59",
"g.	c #8F7F5B",
"h.	c #8CB74B",
"i.	c #778649",
"j.	c #9DD64C",
"k.	c #99D14B",
"l.	c #9DD251",
"m.	c #82A547",
"n.	c #99D04B",
"o.	c #89B645",
"p.	c #A1D951",
"q.	c #8AB748",
"r.	c #96CA4C",
"s.	c #8FC443",
"t.	c #91C548",
"u.	c #92C34B",
"v.	c #85AF46",
"w.	c #8BB945",
"x.	c #93C64B",
"y.	c #9CD64B",
"z.	c #7A8C49",
"A.	c #8CB04F",
"B.	c #9D8361",
"C.	c #9A9160",
"D.	c #917A5C",
"E.	c #967F5E",
"F.	c #8D8059",
"G.	c #908858",
"H.	c #838453",
"I.	c #917A5D",
"J.	c #828353",
"K.	c #947C5E",
"L.	c #897958",
"M.	c #867158",
"N.	c #8D775A",
"O.	c #868453",
"P.	c #817B53",
"Q.	c #817853",
"R.	c #8B7859",
"S.	c #806C56",
"T.	c #90855A",
"U.	c #897C57",
"V.	c #8C8956",
"W.	c #897359",
"X.	c #9F9D60",
"Y.	c #94805D",
"Z.	c #9A9A5A",
"`.	c #A09463",
" +	c #A09763",
".+	c #968A5B",
"++	c #9E9F5F",
"@+	c #A09962",
"#+	c #95875B",
"$+	c #9FA05F",
"%+	c #9C8861",
"&+	c #9C985E",
"*+	c #9B9160",
"=+	c #968C5B",
"-+	c #9E8D62",
";+	c #9B965D",
">+	c #9A975D",
",+	c #9E8A62",
"'+	c #9F9062",
")+	c #99935D",
"!+	c #9B9A5D",
"~+	c #9A8560",
"{+	c #A0A060",
"]+	c #998E60",
"^+	c #958C5A",
"/+	c #A09662",
"                                                              . ",
"                                                              + ",
"                                                              @ ",
"          # $ $ $ %     %   $ & $ * = $ %   $ %   $           - ",
"        ; > , ' ) ! ~ { ] ^ / ( _ : < [ } | 1 2 3 4 5 6       7 ",
"        8 9 0 0 0 0 a 0 0 b 0 c 0 0 0 0 d e f 0 0 0 g -       h ",
"      $ i 0 0 0 0 0 0 0 0 0 0 0 0 0 0 0 0 0 0 0 0 0 j k       l ",
"      $ m n 0 0 0 0 0 0 0 0 0 0 0 0 0 0 0 0 0 0 0 0 o p       q ",
"      $ r 0 0 0 0 0 0 0 0 0 0 0 0 0 0 0 0 0 0 0 0 0 s t       u ",
"      v w 0 0 0 0 0 0 0 0 0 0 0 0 0 0 0 0 0 0 0 0 0 x y #     . ",
"        z A 0 0 0 0 0 0 0 0 0 0 0 0 0 0 0 0 0 0 0 0 B C       D ",
"        E f 0 0 0 0 0 0 0 0 0 0 0 0 0 0 0 0 0 0 0 0 F G       H ",
"        I J 0 0 0 0 0 0 0 0 0 0 0 0 0 0 0 0 0 0 0 0 K L       M ",
"        N O 0 0 0 0 0 0 0 0 0 0 0 0 0 0 0 0 0 0 0 0 P Q       R ",
"        S T 0 0 0 0 0 0 0 0 0 0 0 0 0 0 0 0 0 0 0 0 U V       C ",
"      $ W X 0 0 0 0 0 0 0 0 0 0 0 0 0 0 0 0 0 0 0 0 Y Z       ` ",
"      $  ...0 0 0 0 0 0 0 0 0 0 0 0 0 0 0 0 0 0 0 0 +.@.      l ",
"      #.$.%.0 0 0 0 0 0 0 0 0 0 0 0 0 0 0 0 0 0 0 0 &.*.#     =.",
"        -.;.0 0 0 0 0 0 0 0 0 0 0 0 0 0 0 0 0 0 0 0 >.,.      '.",
"      # ).j 0 0 0 0 0 0 0 0 0 0 0 0 0 0 0 0 0 0 0 0 !.~.      {.",
"      $ ].%.0 0 0 0 0 0 0 0 0 0 0 0 0 0 0 0 0 0 0 0 ^./.      (.",
"        _.:.0 0 0 0 0 0 0 0 0 0 0 0 0 0 0 0 0 0 0 0 <.[.      }.",
"      $ |.1.0 0 0 0 0 0 0 0 0 0 0 0 0 0 0 0 0 0 0 0 2.3.      4.",
"      $ 5.0 0 0 0 0 0 0 0 0 0 0 0 0 0 0 0 0 0 0 0 0 6.7.      8.",
"        9.0.0 0 0 0 0 0 0 0 0 0 0 0 0 0 0 0 0 0 0 0 n a.#     u ",
"      $ b.j c.d.0 0 0 0 0 0 0 0 0 0 0 0 0 0 0 0 0 0 e.f.      l ",
"      # g.h.i.j.k.l.m.n.o.p.q.r.J s.t.u.v.w.x.y.x.z.A.B.      C.",
"        . D.E.F.G.H.I.J.K.L.M.N.O.P.Q.R.S.T.U.V.,.B.W.$       X.",
"                  $   $                 #                     Y.",
"                                                              Z.",
"                                                              $ ",
"  `.=  +.+C.++= @+#+C.$+%+&+*+=+-+;+*+>+,+'+)+*+!+~+{+]+^+/+B.  "};
