/* XPM */
static char * M_xpm[] = {
"32 32 18 1",
" 	c None",
".	c #A6865C",
"+	c #FFFFFF",
"@	c #591E30",
"#	c #78D1D5",
"$	c #471323",
"%	c #000000",
"&	c #F4F3F3",
"*	c #FF0000",
"=	c #B8977F",
"-	c #AF9079",
";	c #BDBDBD",
">	c #CACACA",
",	c #C2A38C",
"'	c #DCBEA7",
")	c #CCAB93",
"!	c #383838",
"~	c #757575",
"................................",
"................................",
"..+++..@@++.....................",
".+##++@$$+++....................",
".++%#+$$$$......................",
".+%%#+$$$..&*+..++..............",
"..+++$$$$.&*&++..++@@@..........",
"..@$$$$$ +###&&+.+$$$@@.........",
"..@=$$$$ *+%#*++..$$$$@@@.......",
"..@=-$=$$&%%#&*+...+++$@@@......",
"..@-==-$$$&&*++;..+##++@@@......",
"..@$-===$;;*&+;==.++%#+$@@@.....",
"...@$-===;>;;;>=,=+%%#+$$@@.....",
"....@$$-=>;>>;==,==+++$$$@@@....",
".....@$$-;>;>==,,,=$$$$$$@@@....",
"......@@$->;;=,,,=,=$$$'$$@@....",
".........-;>==,,=,,,'$$')@@@....",
".........->;=,,==$=,'=)')@@@....",
"..........-;=,,=$$$=,'''$@@.....",
".........%%!=,%%.$$$==$$@@@.....",
"........!%%%%!%%..$$$$$@@@......",
".......!!!%%!!!!%.$$$$$@@@......",
".......!!%%!.!!!~..$$$$@@.......",
".......!!!%...!~!..$$@@@........",
"........!!!%..!!~...@@@.........",
".........!!%.!!~~...............",
"..........%%!!!~................",
"............%!!.................",
"............%%..................",
"............%%..................",
"................................",
"................................"};
