/* XPM */
static char * steps_xpm[] = {
"32 32 3 1",
" 	c #000000",
".	c #F6F6F6",
"+	c #050505",
"                    ..++++++++++",
"                   ...+..+++++++",
"                   .........++++",
"                   .........++++",
"         .   ..    ............+",
"         .. ....    ..    ......",
"       . .. .....           ...+",
"      ..........    ...........+",
"    ...........     ..........++",
"    ...........     ...........+",
"   .............    ...........+",
"   ............     ...........+",
"    ............     ...........",
"    ...........       ......... ",
"   ...........         ........ ",
"   ...........         ........ ",
"   ..........           ......  ",
"   .........           .......  ",
"   ........            ......   ",
"    .......           .......   ",
"    .......          ........   ",
"    .......          ........   ",
"     .......         .......    ",
"     .......         .......    ",
"      .......        .......    ",
"      .......        .......    ",
"      ........         ....     ",
"      ........                  ",
"      .......                   ",
"       .....                    ",
"                                ",
"                                "};
